<!--?xml version="1.0" standalone="no"?-->
<svg id="sw-js-blob-svg" viewBox="0 0 100 100" xmlns="http://www.w3.org/2000/svg">
    <defs>
        <linearGradient id="sw-gradient" x1="0" x2="1" y1="1" y2="0">
            <stop id="stop1" stop-color="rgba(125, 106, 233, 1)" offset="0%"></stop>
            <stop id="stop2" stop-color="rgba(83.268, 56.247, 236.857, 1)" offset="100%"></stop>
        </linearGradient>
    </defs>
    <path fill="url(#sw-gradient)"
        d="M18,-28.5C23.4,-24.4,28,-19.7,33,-13.6C37.9,-7.6,43.2,-0.3,42.5,6.3C41.8,12.9,35.2,18.8,29.1,24.5C23.1,30.3,17.6,35.8,10.9,38.5C4.1,41.1,-3.9,40.8,-11.4,38.7C-18.9,36.5,-25.8,32.4,-31.5,26.8C-37.1,21.1,-41.4,13.8,-42.2,6.3C-42.9,-1.3,-40,-9.1,-36.2,-16.2C-32.4,-23.2,-27.7,-29.5,-21.5,-33.2C-15.3,-36.9,-7.6,-38,-0.7,-37C6.3,-35.9,12.5,-32.5,18,-28.5Z"
        width="100%" height="100%" transform="translate(50 50)" stroke-width="0"
        style="transition: all 0.3s ease 0s;" stroke="url(#sw-gradient)"></path>
</svg>